<?xml version="1.0" encoding="utf-8" standalone="no"?>
<!DOCTYPE svg PUBLIC "-//W3C//DTD SVG 1.1//EN"
  "http://www.w3.org/Graphics/SVG/1.1/DTD/svg11.dtd">
<svg xmlns:xlink="http://www.w3.org/1999/xlink" width="2285.884375pt" height="484.4pt" viewBox="0 0 2285.884375 484.4" xmlns="http://www.w3.org/2000/svg" version="1.1">
 <metadata>
  <rdf:RDF xmlns:dc="http://purl.org/dc/elements/1.1/" xmlns:cc="http://creativecommons.org/ns#" xmlns:rdf="http://www.w3.org/1999/02/22-rdf-syntax-ns#">
   <cc:Work>
    <dc:type rdf:resource="http://purl.org/dc/dcmitype/StillImage"/>
    <dc:date>2022-07-02T11:20:43.511536</dc:date>
    <dc:format>image/svg+xml</dc:format>
    <dc:creator>
     <cc:Agent>
      <dc:title>Matplotlib v3.5.2, https://matplotlib.org/</dc:title>
     </cc:Agent>
    </dc:creator>
   </cc:Work>
  </rdf:RDF>
 </metadata>
 <defs>
  <style type="text/css">*{stroke-linejoin: round; stroke-linecap: butt}</style>
 </defs>
 <g id="figure_1">
  <g id="patch_1">
   <path d="M 0 484.4
L 2285.884375 484.4
L 2285.884375 0
L 0 0
L 0 484.4
z
" style="fill: none"/>
  </g>
  <g id="text_1">
   <!-- sequence -->
   <g transform="translate(7.2 377.2)scale(5 -5)">
    <defs>
     <path id="Quicksand-Bold-73" d="M 218 531
Q 154 621 160 761
Q 166 902 326 1005
Q 429 1069 544 1059
Q 659 1050 768 941
Q 954 755 1158 652
Q 1363 550 1670 550
Q 1766 557 1881 579
Q 1997 602 2083 682
Q 2170 762 2170 928
Q 2170 1069 2074 1152
Q 1978 1235 1821 1292
Q 1664 1350 1472 1402
Q 1274 1459 1066 1529
Q 858 1600 685 1712
Q 512 1824 403 2009
Q 294 2195 294 2477
Q 294 2797 473 3021
Q 653 3245 937 3366
Q 1222 3488 1536 3488
Q 1734 3488 1952 3440
Q 2170 3392 2368 3286
Q 2566 3181 2701 3008
Q 2771 2912 2784 2777
Q 2797 2643 2662 2534
Q 2566 2458 2438 2467
Q 2310 2477 2227 2554
Q 2118 2694 1936 2777
Q 1754 2861 1517 2861
Q 1421 2861 1309 2838
Q 1197 2816 1113 2742
Q 1030 2669 1030 2509
Q 1030 2362 1126 2275
Q 1222 2189 1385 2134
Q 1549 2080 1734 2029
Q 1926 1978 2124 1907
Q 2323 1837 2489 1721
Q 2656 1606 2758 1424
Q 2861 1242 2861 960
Q 2861 634 2669 403
Q 2477 173 2189 54
Q 1901 -64 1600 -64
Q 1222 -64 844 67
Q 467 198 218 531
z
" transform="scale(0.015625)"/>
     <path id="Quicksand-Bold-65" d="M 1997 -64
Q 1453 -64 1053 163
Q 653 390 438 780
Q 224 1171 224 1664
Q 224 2240 457 2646
Q 691 3053 1068 3270
Q 1446 3488 1869 3488
Q 2195 3488 2486 3353
Q 2778 3219 3002 2985
Q 3226 2752 3357 2445
Q 3488 2138 3488 1792
Q 3482 1638 3366 1542
Q 3251 1446 3098 1446
L 653 1446
L 461 2086
L 2810 2086
L 2669 1958
L 2669 2131
Q 2656 2317 2537 2464
Q 2419 2611 2243 2697
Q 2067 2784 1869 2784
Q 1677 2784 1510 2733
Q 1344 2682 1222 2560
Q 1101 2438 1030 2233
Q 960 2029 960 1715
Q 960 1370 1104 1130
Q 1248 890 1475 765
Q 1702 640 1958 640
Q 2195 640 2336 678
Q 2477 717 2563 771
Q 2650 826 2720 864
Q 2835 922 2938 922
Q 3078 922 3171 826
Q 3264 730 3264 602
Q 3264 429 3085 288
Q 2918 147 2617 41
Q 2317 -64 1997 -64
z
" transform="scale(0.015625)"/>
     <path id="Quicksand-Bold-71" d="M 3187 3424
Q 3354 3424 3462 3315
Q 3571 3206 3571 3034
L 3571 -890
Q 3571 -1056 3462 -1168
Q 3354 -1280 3187 -1280
Q 3021 -1280 2912 -1168
Q 2803 -1056 2803 -890
L 2803 704
L 2944 646
Q 2944 563 2854 444
Q 2765 326 2611 211
Q 2458 96 2250 16
Q 2042 -64 1798 -64
Q 1357 -64 998 163
Q 640 390 432 790
Q 224 1190 224 1709
Q 224 2234 432 2634
Q 640 3034 992 3261
Q 1344 3488 1773 3488
Q 2048 3488 2278 3405
Q 2509 3322 2678 3194
Q 2848 3066 2941 2934
Q 3034 2803 3034 2714
L 2803 2630
L 2803 3034
Q 2803 3200 2912 3312
Q 3021 3424 3187 3424
z
M 1894 640
Q 2176 640 2387 781
Q 2598 922 2716 1165
Q 2835 1408 2835 1709
Q 2835 2016 2716 2259
Q 2598 2502 2387 2643
Q 2176 2784 1894 2784
Q 1619 2784 1408 2643
Q 1197 2502 1078 2259
Q 960 2016 960 1709
Q 960 1408 1078 1165
Q 1197 922 1408 781
Q 1619 640 1894 640
z
" transform="scale(0.015625)"/>
     <path id="Quicksand-Bold-75" d="M 2957 3424
Q 3123 3424 3232 3312
Q 3341 3200 3341 3034
L 3341 1408
Q 3341 730 2963 333
Q 2586 -64 1875 -64
Q 1165 -64 790 333
Q 416 730 416 1408
L 416 3034
Q 416 3200 525 3312
Q 634 3424 800 3424
Q 966 3424 1075 3312
Q 1184 3200 1184 3034
L 1184 1408
Q 1184 1018 1357 829
Q 1530 640 1875 640
Q 2227 640 2400 829
Q 2573 1018 2573 1408
L 2573 3034
Q 2573 3200 2681 3312
Q 2790 3424 2957 3424
z
" transform="scale(0.015625)"/>
     <path id="Quicksand-Bold-6e" d="M 2246 3488
Q 2720 3488 2966 3289
Q 3213 3091 3305 2761
Q 3398 2432 3398 2029
L 3398 390
Q 3398 224 3289 112
Q 3181 0 3014 0
Q 2848 0 2739 112
Q 2630 224 2630 390
L 2630 2029
Q 2630 2240 2576 2409
Q 2522 2579 2381 2681
Q 2240 2784 1978 2784
Q 1722 2784 1546 2681
Q 1370 2579 1277 2409
Q 1184 2240 1184 2029
L 1184 390
Q 1184 224 1075 112
Q 966 0 800 0
Q 634 0 525 112
Q 416 224 416 390
L 416 3034
Q 416 3200 525 3312
Q 634 3424 800 3424
Q 966 3424 1075 3312
Q 1184 3200 1184 3034
L 1184 2758
L 1088 2778
Q 1146 2886 1254 3011
Q 1363 3136 1510 3245
Q 1658 3354 1843 3421
Q 2029 3488 2246 3488
z
" transform="scale(0.015625)"/>
     <path id="Quicksand-Bold-63" d="M 1907 3488
Q 2272 3488 2544 3411
Q 2816 3334 2966 3196
Q 3117 3059 3117 2867
Q 3117 2739 3040 2627
Q 2963 2515 2816 2515
Q 2714 2515 2646 2544
Q 2579 2573 2528 2617
Q 2477 2662 2406 2701
Q 2342 2739 2211 2761
Q 2080 2784 2016 2784
Q 1690 2784 1462 2643
Q 1235 2502 1113 2262
Q 992 2022 992 1709
Q 992 1402 1117 1162
Q 1242 922 1462 781
Q 1683 640 1971 640
Q 2131 640 2246 659
Q 2362 678 2438 717
Q 2528 768 2598 825
Q 2669 883 2810 883
Q 2976 883 3065 777
Q 3155 672 3155 518
Q 3155 358 2976 227
Q 2797 96 2505 16
Q 2214 -64 1875 -64
Q 1370 -64 998 169
Q 627 403 425 806
Q 224 1210 224 1709
Q 224 2234 438 2634
Q 653 3034 1033 3261
Q 1414 3488 1907 3488
z
" transform="scale(0.015625)"/>
    </defs>
    <use xlink:href="#Quicksand-Bold-73"/>
    <use xlink:href="#Quicksand-Bold-65" x="48.199997"/>
    <use xlink:href="#Quicksand-Bold-71" x="106.199982"/>
    <use xlink:href="#Quicksand-Bold-75" x="168.499969"/>
    <use xlink:href="#Quicksand-Bold-65" x="227.199966"/>
    <use xlink:href="#Quicksand-Bold-6e" x="285.199951"/>
    <use xlink:href="#Quicksand-Bold-63" x="344.799942"/>
    <use xlink:href="#Quicksand-Bold-65" x="396.299927"/>
   </g>
  </g>
 </g>
</svg>
